Coordinates
version=1
nRows=4
nColumns=63
inDegrees=yes

Units are S.I. units (second, meters, Newtons, ...)
If the header above contains a line with 'inDegrees', this indicates whether rotational values are in degrees (yes) or radians (no).

endheader
time	pelvis_tilt	pelvis_list	pelvis_rotation	pelvis_tx	pelvis_ty	pelvis_tz	hip_flexion_r	hip_adduction_r	hip_rotation_r	knee_angle_r	knee_angle_r_beta	ankle_angle_r	subtalar_angle_r	mtp_angle_r	hip_flexion_l	hip_adduction_l	hip_rotation_l	knee_angle_l	knee_angle_l_beta	ankle_angle_l	subtalar_angle_l	mtp_angle_l	L5_S1_Flex_Ext	L5_S1_Lat_Bending	L5_S1_axial_rotation	L4_L5_Flex_Ext	L4_L5_Lat_Bending	L4_L5_axial_rotation	L3_L4_Flex_Ext	L3_L4_Lat_Bending	L3_L4_axial_rotation	L2_L3_Flex_Ext	L2_L3_Lat_Bending	L2_L3_axial_rotation	L1_L2_Flex_Ext	L1_L2_Lat_Bending	L1_L2_axial_rotation	L1_T12_Flex_Ext	L1_T12_Lat_Bending	L1_T12_axial_rotation	Abs_r3	Abs_r2	Abs_r1	Abs_t1	Abs_t2	neck_flexion	neck_bending	neck_rotation	arm_flex_r	arm_add_r	arm_rot_r	elbow_flex_r	pro_sup_r	wrist_flex_r	wrist_dev_r	arm_flex_l	arm_add_l	arm_rot_l	elbow_flex_l	pro_sup_l	wrist_flex_l	wrist_dev_l
      1.57627119	      5.85583532	     19.17098388	     85.06647310	      0.28197093	      0.94877198	      0.56033817	    -22.62381307	      3.17862123	      5.33325083	      8.35700184	      0.14585720	     12.63637989	    -12.76614329	      0.00000000	    -23.43974333	     -4.43142235	     26.26997676	      5.38887556	      0.09405362	     13.56713462	     10.98663504	      0.00000000	     -0.65325072	     -0.05792123	      8.09654762	     -1.21315191	     -0.07703523	      8.60258185	     -1.07322561	     -0.14082968	      8.60258185	     -0.74660025	     -0.14082968	      7.08447917	     -0.60660862	     -0.11811297	      6.57844494	     -0.37326746	     -0.08971998	      6.07241071	     -4.66610456	     -0.65521653	     45.03056890	      0.00000000	      0.00000000	    -11.32780357	     15.55621538	    -37.42882027	    -15.24601041	    -27.81441813	     49.34674352	      0.10890938	      0.71515488	    -69.72278065	    -20.15446445	     61.02186235	      2.44429192	    129.18479258	      0.07277401	      0.99700130	    -69.80059210	    -24.43877405
      1.59322034	      6.70163608	     19.30790622	     84.75266561	      0.28091292	      0.95015593	      0.55993791	    -22.63062120	      3.82936641	      2.19312401	      8.48110671	      0.14802324	      9.37490813	    -12.73112614	      0.00000000	    -23.53514475	     -5.06601098	     25.06966132	      5.98251887	      0.10441465	     13.12738613	     10.59728710	      0.00000000	     -0.61776261	      0.06379708	      8.48878896	     -1.14724694	      0.08485012	      9.01933827	     -1.01492219	      0.15511622	      9.01933827	     -0.70604088	      0.15511622	      7.42769034	     -0.57365436	      0.13009501	      6.89714103	     -0.35298955	      0.09882168	      6.36659172	     -4.41261653	      0.72168533	     47.21209754	      0.00000000	      0.00000000	    -11.11887712	     16.37620313	    -39.12549734	    -17.40782854	    -27.62783765	     46.15925820	      0.10849026	      0.77146583	    -69.72548828	    -19.99950950	     60.68133189	      4.63036822	    129.84669286	      0.07132525	      0.97914298	    -69.80681029	    -24.42082424
      1.61016949	      7.34665109	     19.51388063	     84.74786169	      0.28002315	      0.95175613	      0.55979391	    -22.64005342	      4.35278109	     -1.36735822	      8.74400465	      0.15261167	      5.70900261	    -12.43095113	      0.00000000	    -23.60578581	     -5.71843266	     22.75523879	      6.55461428	      0.11439960	     12.37741664	     12.37898874	      0.00000000	     -0.60562060	      0.16336859	      8.80716314	     -1.12469802	      0.21728022	      9.35761084	     -0.99497408	      0.39721438	      9.35761084	     -0.69216378	      0.39721438	      7.70626775	     -0.56237929	      0.33314122	      7.15582005	     -0.34605161	      0.25305794	      6.60537235	     -4.32588738	      1.84805813	     48.98279923	      0.00000000	      0.00000000	    -11.08501958	     17.01737703	    -40.33421934	    -19.41692822	    -27.26225701	     43.29156264	      0.10732976	      0.75440776	    -69.73143769	    -20.93074315	     60.44221399	      6.69229379	    130.26663933	      0.07027837	      0.97401395	    -69.81643411	    -24.41203164
      1.62711864	      8.22806828	     19.82734228	     84.81538549	      0.27879931	      0.95374309	      0.55965715	    -22.81608545	      5.14425282	     -5.29383888	      8.84996832	      0.15446109	      0.23149523	    -13.21336749	      0.00000000	    -23.89944500	     -6.63082733	     21.33270072	      6.92833707	      0.12092229	     11.24351376	     13.34333398	      0.00000000	     -0.59788708	      0.29414238	      9.10895817	     -1.11033609	      0.39120936	      9.67826806	     -0.98226868	      0.71517778	      9.67826806	     -0.68332514	      0.71517778	      7.97033840	     -0.55519794	      0.59981514	      7.40102851	     -0.34163268	      0.45562654	      6.83171863	     -4.27064760	      3.32739741	     50.66129265	      0.00000000	      0.00000000	    -10.92940980	     17.54446390	    -41.72203905	    -21.49139576	    -26.92057292	     41.34551340	      0.10454092	      0.74604053	    -69.74213486	    -20.68749977	     60.19150078	      8.86789052	    130.81122411	      0.06907782	      0.95712131	    -69.82664083	    -24.39842197
